<?xml version="1.0" encoding="UTF-8" standalone="no"?>
<!DOCTYPE svg PUBLIC "-//W3C//DTD SVG 1.1//EN" "http://www.w3.org/Graphics/SVG/1.1/DTD/svg11.dtd">
<!-- Generiert durch Microsoft Visio, SVG Export Icon2.svg Page-1 -->
<svg xmlns="http://www.w3.org/2000/svg" xmlns:xlink="http://www.w3.org/1999/xlink" xmlns:ev="http://www.w3.org/2001/xml-events"
		xmlns:v="http://schemas.microsoft.com/visio/2003/SVGExtensions/" width="9.56005in" height="9.56005in"
		viewBox="0 0 688.324 688.324" xml:space="preserve" color-interpolation-filters="sRGB" class="st9">
	<v:documentProperties v:langID="3079" v:metric="true" v:viewMarkup="false">
		<v:userDefs>
			<v:ud v:nameU="msvNoAutoConnect" v:val="VT0(1):26"/>
		</v:userDefs>
	</v:documentProperties>

	<style type="text/css">
	<![CDATA[
		.st1 {fill:#ffffff;stroke:#000000;stroke-linecap:round;stroke-linejoin:round;stroke-width:0.24}
		.st2 {fill:url(#grad0-8);stroke:#000000;stroke-linecap:round;stroke-linejoin:round;stroke-width:0.24}
		.st3 {fill:url(#grad0-12);stroke:#000000;stroke-linecap:round;stroke-linejoin:round;stroke-width:0.24}
		.st4 {fill:url(#grad0-17);stroke:none;stroke-linecap:butt;stroke-width:0.749997}
		.st5 {fill:url(#grad0-17)}
		.st6 {stroke:none;stroke-linecap:butt;stroke-width:0.749997}
		.st7 {fill:#ffff00;stroke:none;stroke-linecap:butt;stroke-width:0.75}
		.st8 {fill:url(#grad0-43);stroke:none;stroke-linecap:butt;stroke-width:0.75}
		.st9 {fill:none;fill-rule:evenodd;font-size:12px;overflow:visible;stroke-linecap:square;stroke-miterlimit:3}
	]]>
	</style>

	<defs id="Patterns_And_Gradients">
		<linearGradient id="grad0-8" x1="0" y1="0" x2="1" y2="0" gradientTransform="rotate(100 0.5 0.5)">
			<stop offset="0" stop-color="#00eeee" stop-opacity="1"/>
			<stop offset="0.49" stop-color="#0070c0" stop-opacity="1"/>
		</linearGradient>
		<linearGradient id="grad0-12" x1="0" y1="0" x2="1" y2="0" gradientTransform="rotate(250 0.5 0.5)">
			<stop offset="0" stop-color="#ea700d" stop-opacity="1"/>
			<stop offset="1" stop-color="#ffff00" stop-opacity="1"/>
		</linearGradient>
		<linearGradient id="grad0-17" x1="0" y1="0" x2="1" y2="0" gradientTransform="rotate(0 0.5 0.5)">
			<stop offset="0" stop-color="#0070c0" stop-opacity="1"/>
			<stop offset="0.49" stop-color="#00eeee" stop-opacity="1"/>
		</linearGradient>
		<linearGradient id="grad0-43" x1="0" y1="0" x2="1" y2="0" gradientTransform="rotate(20 0.5 0.5)">
			<stop offset="0" stop-color="#ffff00" stop-opacity="1"/>
			<stop offset="1" stop-color="#ea700d" stop-opacity="1"/>
		</linearGradient>
	</defs>
	<g v:mID="0" v:index="1" v:groupContext="foregroundPage">
		<title>Zeichenblatt-1</title>
		<v:pageProperties v:drawingScale="0.0393701" v:pageScale="0.0393701" v:drawingUnits="24" v:shadowOffsetX="8.50394"
				v:shadowOffsetY="-8.50394"/>
		<g id="shape54-1" v:mID="54" v:groupContext="shape" transform="translate(20.1715,-21.6792)">
			<title>Rechteck, abgerundete Ecken.20</title>
			<v:userDefs>
				<v:ud v:nameU="CTypeTopLeftSnip" v:prompt="" v:val="VT0(0):5"/>
				<v:ud v:nameU="CTypeTopRightSnip" v:prompt="" v:val="VT0(0):5"/>
				<v:ud v:nameU="CTypeBotLeftSnip" v:prompt="" v:val="VT0(0):5"/>
				<v:ud v:nameU="CTypeBotRightSnip" v:prompt="" v:val="VT0(0):5"/>
				<v:ud v:nameU="CornerLockHoriz" v:prompt="" v:val="VT0(0):5"/>
				<v:ud v:nameU="CornerLockVert" v:prompt="" v:val="VT0(0):5"/>
				<v:ud v:nameU="CornerLockDiag" v:prompt="" v:val="VT0(0):5"/>
				<v:ud v:nameU="TopLeftOffset" v:prompt="" v:val="VT0(0.15748031496063):24"/>
				<v:ud v:nameU="TopRightOffset" v:prompt="" v:val="VT0(0.15748031496063):24"/>
				<v:ud v:nameU="BotLeftOffset" v:prompt="" v:val="VT0(0.15748031496063):24"/>
				<v:ud v:nameU="BotRightOffset" v:prompt="" v:val="VT0(0.15748031496063):24"/>
				<v:ud v:nameU="visVersion" v:prompt="" v:val="VT0(15):26"/>
				<v:ud v:nameU="TopLeftOffset" v:prompt="" v:val="VT0(0.89763779527559):24"/>
				<v:ud v:nameU="TopRightOffset" v:prompt="" v:val="VT0(0.89763779527559):24"/>
				<v:ud v:nameU="BotLeftOffset" v:prompt="" v:val="VT0(0.89763779527559):24"/>
				<v:ud v:nameU="BotRightOffset" v:prompt="" v:val="VT0(0.89763779527559):24"/>
			</v:userDefs>
			<path d="M64.63 688.32 L581.67 688.32 A64.6289 64.6289 -180 0 0 646.3 623.69 L646.3 106.99 A64.6289 64.6289 -180 0 0
						 581.67 42.36 L64.63 42.36 A64.6289 64.6289 -180 0 0 0 106.99 L0 623.69 A64.6289 64.6289 -180 0 0 64.63 688.32
						 Z" class="st1"/>
		</g>
		<g id="group78-3" transform="translate(24.0244,-21.0122)" v:mID="78" v:groupContext="group">
			<title>Tabelle.78</title>
			<g id="group79-4" v:mID="79" v:groupContext="group">
				<title>Tabelle.79</title>
			</g>
		</g>
		<g id="shape136-5" v:mID="136" v:groupContext="shape" transform="translate(-345.002,666.978) rotate(-90)">
			<title>Rechteck, auf gleicher Seite liegende Ecken abgerundet.136</title>
			<v:userDefs>
				<v:ud v:nameU="CTypeTopLeftSnip" v:prompt="" v:val="VT0(0):5"/>
				<v:ud v:nameU="CTypeTopRightSnip" v:prompt="" v:val="VT0(0):5"/>
				<v:ud v:nameU="CTypeBotLeftSnip" v:prompt="" v:val="VT0(1):5"/>
				<v:ud v:nameU="CTypeBotRightSnip" v:prompt="" v:val="VT0(0):5"/>
				<v:ud v:nameU="CornerLockHoriz" v:prompt="" v:val="VT0(1):5"/>
				<v:ud v:nameU="CornerLockVert" v:prompt="" v:val="VT0(0):5"/>
				<v:ud v:nameU="CornerLockDiag" v:prompt="" v:val="VT0(0):5"/>
				<v:ud v:nameU="TopLeftOffset" v:prompt="" v:val="VT0(0.15748031496063):24"/>
				<v:ud v:nameU="TopRightOffset" v:prompt="" v:val="VT0(0.15748031496063):24"/>
				<v:ud v:nameU="BotLeftOffset" v:prompt="" v:val="VT0(0):24"/>
				<v:ud v:nameU="BotRightOffset" v:prompt="" v:val="VT0(0):24"/>
				<v:ud v:nameU="visVersion" v:prompt="" v:val="VT0(15):26"/>
				<v:ud v:nameU="TopLeftOffset" v:prompt="" v:val="VT0(0.89763779527559):1"/>
				<v:ud v:nameU="TopRightOffset" v:prompt="" v:val="VT0(0.89763779527559):1"/>
			</v:userDefs>
			<path d="M0 688.32 L646.3 688.32 L646.3 429.8 A64.6289 64.6289 -180 0 0 581.67 365.17 L64.63 365.17 A64.6289 64.6289
						 -180 0 0 0 429.8 L0 688.32 Z" class="st2"/>
		</g>
		<g id="shape144-9" v:mID="144" v:groupContext="shape" transform="translate(1035.5,20.6787) rotate(90)">
			<title>Rechteck, auf gleicher Seite liegende Ecken abgerundet.144</title>
			<v:userDefs>
				<v:ud v:nameU="CTypeTopLeftSnip" v:prompt="" v:val="VT0(0):5"/>
				<v:ud v:nameU="CTypeTopRightSnip" v:prompt="" v:val="VT0(0):5"/>
				<v:ud v:nameU="CTypeBotLeftSnip" v:prompt="" v:val="VT0(1):5"/>
				<v:ud v:nameU="CTypeBotRightSnip" v:prompt="" v:val="VT0(0):5"/>
				<v:ud v:nameU="CornerLockHoriz" v:prompt="" v:val="VT0(1):5"/>
				<v:ud v:nameU="CornerLockVert" v:prompt="" v:val="VT0(0):5"/>
				<v:ud v:nameU="CornerLockDiag" v:prompt="" v:val="VT0(0):5"/>
				<v:ud v:nameU="TopLeftOffset" v:prompt="" v:val="VT0(0.15748031496063):24"/>
				<v:ud v:nameU="TopRightOffset" v:prompt="" v:val="VT0(0.15748031496063):24"/>
				<v:ud v:nameU="BotLeftOffset" v:prompt="" v:val="VT0(0):24"/>
				<v:ud v:nameU="BotRightOffset" v:prompt="" v:val="VT0(0):24"/>
				<v:ud v:nameU="visVersion" v:prompt="" v:val="VT0(15):26"/>
				<v:ud v:nameU="TopLeftOffset" v:prompt="" v:val="VT0(0.89763779527559):1"/>
				<v:ud v:nameU="TopRightOffset" v:prompt="" v:val="VT0(0.89763779527559):1"/>
			</v:userDefs>
			<path d="M0 688.32 L646.3 688.32 L646.3 429.8 A64.6289 64.6289 -180 0 0 581.67 365.17 L64.63 365.17 A64.6289 64.6289
						 -180 0 0 -0 429.8 L0 688.32 Z" class="st3"/>
		</g>
		<g id="group143-13" transform="translate(341.15,-21.3457)" v:mID="143" v:groupContext="group">
			<title>Tabelle.143</title>
			<g id="shape139-14" v:mID="139" v:groupContext="shape" transform="translate(2.17153,-0.283522)">
				<title>Tabelle.139</title>
				<path d="M0 688.32 L39.23 688.32 L39.23 606.37 L104.52 640.87 L138.55 586.92 L39.23 534.44 L39.23 195.62 L138.55
							 143.14 L104.52 89.19 L39.23 123.69 L39.23 42.92 L0 42.92 L0 688.32 Z" class="st4"/>
			</g>
			<g id="shape140-18" v:mID="140" v:groupContext="shape" transform="translate(8.63309E-013,-105.834)">
				<title>Tabelle.140</title>
				<path d="M0 504.43 L149.79 583.26 L149.79 688.32 L218.18 688.32 L218.18 619.26 L294.98 659.68 L329.17 605.68 L253.33
							 565.76 L321.12 530.09 L286.92 476.09 L184.94 529.77 L0 432.43 L0 504.43 Z" class="st4"/>
			</g>
			<g id="shape141-21" v:mID="141" v:groupContext="shape" transform="translate(6.02442,-285.696)">
				<title>Tabelle.141</title>
				<path d="M0 688.32 L178.67 593.83 L277.99 646.36 L312.02 592.36 L246.73 557.83 L323.15 517.41 L289.12 463.42 L213.65
							 503.34 L213.65 431.98 L145.58 431.98 L145.59 539.33 L0 616.33 L0 688.32 ZM145.59 431.97 L145.58 431.98
							 L145.59 431.97 Z" class="st5"/>
				<path d="M0 688.32 L178.67 593.83 L277.99 646.36 L312.02 592.36 L246.73 557.83 L323.15 517.41 L289.12 463.42 L213.65
							 503.34 L213.65 431.98 L145.58 431.98 L145.59 539.33 L0 616.33 L0 688.32M145.59 431.97 L145.58 431.98"
						class="st6"/>
			</g>
		</g>
		<g id="group135-25" transform="translate(18,-21.3457)" v:mID="135" v:groupContext="group">
			<title>Tabelle.135</title>
			<g id="shape99-26" v:mID="99" v:groupContext="shape" transform="translate(2.17153,-294.09)">
				<title>Tabelle.99</title>
				<path d="M148.56 688.32 C101.02 688.53 32.48 680.15 0 630.46 C76.46 645.11 82.88 623.41 141.16 618.71 L148.56 688.32
							 Z" class="st7"/>
			</g>
			<g id="shape100-28" v:mID="100" v:groupContext="shape" transform="translate(35.8007,-173.097)">
				<title>Tabelle.100</title>
				<path d="M158.96 651.8 C117.05 676.32 52.47 704.12 0 677.47 C74.58 651.08 69.87 628.88 119.13 594.96 L158.96 651.8
							 Z" class="st7"/>
			</g>
			<g id="shape101-30" v:mID="101" v:groupContext="shape" transform="translate(145.273,-56.1524)">
				<title>Tabelle.101</title>
				<path d="M126.09 585.63 C101.35 628.17 58.45 685 0 688.32 C52.29 627.65 37.56 610.71 64.19 556.28 L126.09 585.63 Z"
						class="st7"/>
			</g>
			<g id="shape109-32" v:mID="109" v:groupContext="shape" transform="translate(171.819,-469.723)">
				<title>Tabelle.109</title>
				<path d="M35.12 688.32 C11.41 645.17 -15.39 578.73 10.76 524.93 C36.15 601.65 57.77 596.9 90.6 647.63 L35.12 688.32
							 Z" class="st7"/>
			</g>
			<g id="shape110-34" v:mID="110" v:groupContext="shape" transform="translate(55.9383,-389.747)">
				<title>Tabelle.110</title>
				<path d="M100.65 688.32 C59.11 663.14 3.55 619.38 0 559.35 C59.34 612.74 75.75 597.52 128.88 624.58 L100.65 688.32
							 Z" class="st7"/>
			</g>
			<g id="shape132-36" v:mID="132" v:groupContext="shape" transform="translate(290.189,-513.256)">
				<title>Tabelle.132</title>
				<path d="M36.58 555.28 C7 592.02 0.54 647.54 0 688.32 L36.58 684.84 L36.58 555.28 Z" class="st7"/>
			</g>
			<g id="shape133-38" v:mID="133" v:groupContext="shape" transform="translate(295.82,0)">
				<title>Tabelle.133</title>
				<path d="M29.27 538.29 L0 540.98 C3.32 601.81 24.31 608.95 8.41 688.32 C16.35 683.01 23.27 676.69 29.27 669.62 L29.27
							 538.29 Z" class="st7"/>
			</g>
			<g id="shape134-40" v:mID="134" v:groupContext="shape" transform="translate(153.472,-154.966)">
				<title>Tabelle.134</title>
				<path d="M171.62 332.55 C76.72 333.53 0 412.89 0 510.47 C0 608.04 76.71 687.34 171.62 688.32 L171.62 332.55 Z"
						class="st8"/>
			</g>
		</g>
	</g>
</svg>
