<?xml version="1.0" encoding="UTF-8" standalone="no"?>
<!-- Created with Inkscape (http://www.inkscape.org/) -->

<svg
   xmlns:dc="http://purl.org/dc/elements/1.1/"
   xmlns:cc="http://creativecommons.org/ns#"
   xmlns:rdf="http://www.w3.org/1999/02/22-rdf-syntax-ns#"
   xmlns:svg="http://www.w3.org/2000/svg"
   xmlns="http://www.w3.org/2000/svg"
   xmlns:xlink="http://www.w3.org/1999/xlink"
   xmlns:sodipodi="http://sodipodi.sourceforge.net/DTD/sodipodi-0.dtd"
   xmlns:inkscape="http://www.inkscape.org/namespaces/inkscape"
   width="210mm"
   height="297mm"
   viewBox="0 0 210 297"
   version="1.1"
   id="svg8"
   inkscape:version="0.92.1 r15371"
   sodipodi:docname="sunsnow app.svg">
  <defs
     id="defs2">
    <clipPath
       clipPathUnits="userSpaceOnUse"
       id="clipPath3706">
      <rect
         id="rect3708"
         width="320.93005"
         height="641.0752"
         x="262.15997"
         y="415.92401"
         style="stroke-width:1.00000334" />
    </clipPath>
    <clipPath
       clipPathUnits="userSpaceOnUse"
       id="clipPath3728">
      <rect
         id="rect3730"
         width="437.9931"
         height="879.35712"
         x="-1.1524975e-005"
         y="1.1452501e-007"
         style="stroke-width:0.99999994" />
    </clipPath>
    <clipPath
       id="clipPath3748"
       clipPathUnits="userSpaceOnUse">
      <path
         inkscape:connector-curvature="0"
         id="path3746"
         d="M 0,573.952 H 573.95 V 0 H 0 Z" />
    </clipPath>
    <clipPath
       id="clipPath3796"
       clipPathUnits="userSpaceOnUse">
      <path
         inkscape:connector-curvature="0"
         id="path3794"
         d="M 0,573.952 H 573.95 V 0 H 0 Z" />
    </clipPath>
    <clipPath
       id="clipPath3812"
       clipPathUnits="userSpaceOnUse">
      <path
         inkscape:connector-curvature="0"
         id="path3810"
         d="M 0,573.952 H 573.95 V 0 H 0 Z" />
    </clipPath>
    <clipPath
       id="clipPath3832"
       clipPathUnits="userSpaceOnUse">
      <path
         inkscape:connector-curvature="0"
         id="path3830"
         d="M 0,573.952 H 573.95 V 0 H 0 Z" />
    </clipPath>
    <clipPath
       clipPathUnits="userSpaceOnUse"
       id="clipPath3915">
      <rect
         id="rect3917"
         width="151.98489"
         height="243.31882"
         x="122.13267"
         y="-553.86597"
         style="stroke-width:0.75"
         transform="scale(1,-1)" />
    </clipPath>
    <clipPath
       id="clipPath3935"
       clipPathUnits="userSpaceOnUse">
      <path
         inkscape:connector-curvature="0"
         id="path3933"
         d="M 0,573.952 H 573.95 V 0 H 0 Z" />
    </clipPath>
    <clipPath
       id="clipPath3983"
       clipPathUnits="userSpaceOnUse">
      <path
         inkscape:connector-curvature="0"
         id="path3981"
         d="M 0,573.952 H 573.95 V 0 H 0 Z" />
    </clipPath>
    <clipPath
       id="clipPath3999"
       clipPathUnits="userSpaceOnUse">
      <path
         inkscape:connector-curvature="0"
         id="path3997"
         d="M 0,573.952 H 573.95 V 0 H 0 Z" />
    </clipPath>
    <clipPath
       id="clipPath4019"
       clipPathUnits="userSpaceOnUse">
      <path
         inkscape:connector-curvature="0"
         id="path4017"
         d="M 0,573.952 H 573.95 V 0 H 0 Z" />
    </clipPath>
    <clipPath
       clipPathUnits="userSpaceOnUse"
       id="clipPath4100">
      <rect
         id="rect4102"
         width="152.66965"
         height="273.5495"
         x="16.267635"
         y="-286.40982"
         style="stroke-width:0.75"
         transform="scale(1,-1)" />
    </clipPath>
    <linearGradient
       y2=".81641"
       y1=".074219"
       x2=".48047"
       x1=".48438"
       id="a">
      <stop
         id="stop4147"
         offset=".007813"
         stop-opacity=".996"
         stop-color="#ff7f00" />
      <stop
         id="stop4149"
         offset="1"
         stop-opacity=".996"
         stop-color="#bf0000" />
    </linearGradient>
    <linearGradient
       y2="1"
       y1=".26562"
       x2=".46094"
       x1=".48828"
       id="e">
      <stop
         id="stop4152"
         offset=".015625"
         stop-opacity=".996"
         stop-color="#ff7f00" />
      <stop
         id="stop4154"
         offset=".54688"
         stop-opacity=".996"
         stop-color="#bf0000" />
      <stop
         id="stop4156"
         offset="1"
         stop-opacity=".996"
         stop-color="#bf0000" />
    </linearGradient>
    <linearGradient
       y2="255.57076"
       y1="98.737899"
       x2="258.14265"
       x1="263.61411"
       id="d"
       gradientTransform="scale(0.63545057,1.5736865)"
       gradientUnits="userSpaceOnUse">
      <stop
         id="stop4159"
         offset=".015625"
         stop-opacity=".996"
         stop-color="#ff7f00" />
      <stop
         id="stop4161"
         offset=".54688"
         stop-opacity=".996"
         stop-color="#bf0000" />
      <stop
         id="stop4163"
         offset="1"
         stop-opacity=".996"
         stop-color="#bf0000" />
    </linearGradient>
    <linearGradient
       inkscape:collect="always"
       xlink:href="#a"
       id="linearGradient4203"
       x1="263.61411"
       y1="39.471337"
       x2="262.70142"
       y2="212.71646"
       gradientTransform="scale(0.63545057,1.5736865)"
       gradientUnits="userSpaceOnUse" />
    <linearGradient
       inkscape:collect="always"
       xlink:href="#e"
       id="linearGradient4205"
       x1="352.9052"
       y1="141.38512"
       x2="349.14689"
       y2="242.33727"
       gradientTransform="scale(0.66812208,1.4967325)"
       gradientUnits="userSpaceOnUse" />
    <linearGradient
       inkscape:collect="always"
       xlink:href="#a"
       id="linearGradient4207"
       x1="352.36909"
       y1="115.07403"
       x2="351.8316"
       y2="217.09992"
       gradientTransform="scale(0.66812208,1.4967325)"
       gradientUnits="userSpaceOnUse" />
    <linearGradient
       inkscape:collect="always"
       xlink:href="#e"
       id="linearGradient4209"
       x1="417.96893"
       y1="167.34658"
       x2="414.28026"
       y2="266.42797"
       gradientTransform="scale(0.67453966,1.4824925)"
       gradientUnits="userSpaceOnUse" />
    <linearGradient
       inkscape:collect="always"
       xlink:href="#a"
       id="linearGradient4211"
       x1="417.44274"
       y1="141.52306"
       x2="416.91521"
       y2="241.6583"
       gradientTransform="scale(0.67453966,1.4824925)"
       gradientUnits="userSpaceOnUse" />
    <linearGradient
       inkscape:collect="always"
       xlink:href="#e"
       id="linearGradient4213"
       x1="347.60419"
       y1="163.80992"
       x2="342.70616"
       y2="295.37616"
       gradientTransform="scale(0.7478304,1.3372016)"
       gradientUnits="userSpaceOnUse" />
    <linearGradient
       inkscape:collect="always"
       xlink:href="#a"
       id="linearGradient4215"
       x1="346.9055"
       y1="129.51989"
       x2="346.20501"
       y2="262.4855"
       gradientTransform="scale(0.7478304,1.3372016)"
       gradientUnits="userSpaceOnUse" />
    <clipPath
       clipPathUnits="userSpaceOnUse"
       id="clipPath4219">
      <rect
         id="rect4221"
         width="184.0912"
         height="67.880005"
         x="326.54919"
         y="302.72"
         style="stroke-width:0.47265834" />
    </clipPath>
    <linearGradient
       id="a-0">
      <stop
         id="stop4243"
         offset="0" />
      <stop
         id="stop4245"
         offset="1"
         stop-opacity="0" />
    </linearGradient>
    <linearGradient
       gradientUnits="userSpaceOnUse"
       y2="327.66"
       y1="-150.7"
       x2="0"
       id="e-1">
      <stop
         id="stop4248"
         offset="0"
         stop-opacity="0" />
      <stop
         id="stop4250"
         offset=".5" />
      <stop
         id="stop4252"
         offset="1"
         stop-opacity="0" />
    </linearGradient>
    <radialGradient
       gradientUnits="userSpaceOnUse"
       gradientTransform="matrix(1.9951,0,0,1.9951,-24.325,-35.701)"
       r="20.531"
       cy="35.878"
       cx="24.446"
       id="d-2">
      <stop
         id="stop4255"
         offset="0"
         stop-color="#fff" />
      <stop
         id="stop4257"
         offset="1"
         stop-color="#dcdcdc" />
    </radialGradient>
    <radialGradient
       xlink:href="#a-0"
       gradientUnits="userSpaceOnUse"
       gradientTransform="matrix(-2.7744,0,0,1.9697,112.76,-872.89)"
       r="117.14"
       cy="486.65"
       cx="605.71"
       id="b" />
    <radialGradient
       xlink:href="#a-0"
       gradientUnits="userSpaceOnUse"
       gradientTransform="matrix(2.7744,0,0,1.9697,-1891.6,-872.89)"
       r="117.14"
       cy="486.65"
       cx="605.71"
       id="c" />
    <clipPath
       clipPathUnits="userSpaceOnUse"
       id="clipPath4309">
      <rect
         id="rect4311"
         width="29.407036"
         height="22.252651"
         x="9.7331371"
         y="15.149959"
         style="stroke-width:0.09729611" />
    </clipPath>
    <clipPath
       clipPathUnits="userSpaceOnUse"
       id="clipPath4549">
      <rect
         id="rect4551"
         width="122.24879"
         height="63.118996"
         x="300.17999"
         y="418.159"
         style="stroke-width:0.58958191" />
    </clipPath>
    <clipPath
       clipPathUnits="userSpaceOnUse"
       id="clipPath4555">
      <rect
         id="rect4557"
         width="112.8262"
         height="61.9007"
         x="300.17999"
         y="418.159"
         style="stroke-width:0.62035763" />
    </clipPath>
  </defs>
  <sodipodi:namedview
     id="base"
     pagecolor="#ffffff"
     bordercolor="#666666"
     borderopacity="1.0"
     inkscape:pageopacity="0.0"
     inkscape:pageshadow="2"
     inkscape:zoom="0.35"
     inkscape:cx="400"
     inkscape:cy="560"
     inkscape:document-units="mm"
     inkscape:current-layer="layer1"
     showgrid="false"
     inkscape:window-width="1366"
     inkscape:window-height="705"
     inkscape:window-x="-8"
     inkscape:window-y="-8"
     inkscape:window-maximized="1" />
  <metadata
     id="metadata5">
    <rdf:RDF>
      <cc:Work
         rdf:about="">
        <dc:format>image/svg+xml</dc:format>
        <dc:type
           rdf:resource="http://purl.org/dc/dcmitype/StillImage" />
        <dc:title></dc:title>
      </cc:Work>
    </rdf:RDF>
  </metadata>
  <g
     inkscape:label="Ebene 1"
     inkscape:groupmode="layer"
     id="layer1">
    <g
       id="g3686"
       transform="matrix(0.32055932,0,0,0.28930181,25.031917,-86.311333)"
       style="fill:#1f89ef;shape-rendering:auto"
       clip-path="url(#clipPath3706)">
      <path
         id="path3680"
         style="color:#000000;isolation:auto;mix-blend-mode:normal;solid-color:#000000;color-rendering:auto;image-rendering:auto"
         d="m 262.16,415.93 v 78.658 l -60.881,-35.15 -30.715,53.197 91.596,52.883 v 336.08 l -91.596,52.883 30.715,53.197 60.881,-35.15 v 79.83 h 61.43 V 971.54 l 58.93,34.023 30.713,-53.197 L 323.59,900.61 V 566.5 l 89.643,-51.756 -30.713,-53.197 -58.93,34.023 v -79.646 h -61.43 z"
         inkscape:connector-curvature="0" />
      <path
         id="path3682"
         style="color:#000000;isolation:auto;mix-blend-mode:normal;solid-color:#000000;color-rendering:auto;image-rendering:auto"
         d="M 423.06,518.31 V 624.08 L 132.01,792.12 40.412,739.237 9.699,792.434 70.582,827.584 1.447,867.5 32.16,920.699 102.15,880.291 v 68.045 h 61.428 v -103.51 l 289.34,-167.05 89.643,51.756 30.715,-53.197 -58.93,-34.023 68.975,-39.822 -30.715,-53.199 -68.119,39.328 V 518.32 l -61.428,-0.002 z"
         inkscape:connector-curvature="0" />
      <path
         id="path3684"
         style="color:#000000;isolation:auto;mix-blend-mode:normal;solid-color:#000000;color-rendering:auto;image-rendering:auto"
         d="m 99.85,518.07 v 70.299 L 30.715,548.455 0,601.654 l 69.99,40.408 -58.93,34.023 30.713,53.197 89.645,-51.756 289.34,167.05 v 103.51 h 61.428 v -68.045 l 68.975,39.822 30.715,-53.199 -68.121,-39.33 60.883,-35.15 -30.713,-53.197 -91.596,52.883 -291.05,-168.04 V 518.06 H 99.851 Z"
         inkscape:connector-curvature="0" />
    </g>
    <g
       id="g3724"
       transform="matrix(0.25093427,0,0,0.24102467,-0.30792666,19.198397)"
       clip-path="url(#clipPath3728)">
      <path
         id="path3710"
         d="M 0,436.5 V 0 H 876 V 873 H 0 Z"
         inkscape:connector-curvature="0"
         style="fill:#ffffff" />
      <path
         id="path3712"
         d="m 261.75,871.63 c -4.6121,-1.7206 -9.9607,-5.7157 -12.56,-9.3817 -4.9482,-6.9791 -8.1104,-23.47 -6.4369,-33.57 1.3329,-8.044 42.869,-112.82 47.248,-119.18 3.8737,-5.6302 11.013,-11.685 18.475,-15.669 4.7822,-2.5528 7.4798,-3.2765 13.516,-3.626 9.1856,-0.53174 15.168,1.8252 20.528,8.087 6.7042,7.8323 10.656,24.25 8.6191,35.811 -0.9754,5.5375 -39.2,103.97 -44.405,114.35 -2.9918,5.9655 -12.398,15.255 -20.052,19.802 -5.9474,3.5338 -7.7357,4.0975 -14,4.4135 -4.553,0.22967 -8.555,-0.15006 -10.934,-1.0374 z m 345.1,-2.9664 c -10.268,-3.8398 -22.571,-14.026 -27.077,-22.419 -1.4023,-2.6118 -12.494,-27.99 -24.647,-56.395 -17.972,-42.005 -22.286,-52.973 -23.105,-58.75 -2.6627,-18.774 5.7187,-37.89 18.456,-42.094 6.3238,-2.087 16.979,-0.85186 24.188,2.804 7.7518,3.931 17.151,12.564 20.53,18.857 1.4265,2.6562 12.6,28.217 24.831,56.802 24.644,57.599 25.266,59.563 23.154,73.15 -2.8671,18.442 -11.622,28.219 -25.998,29.034 -4.107,0.23285 -8.0817,-0.14752 -10.331,-0.98865 z m -184.34,-181.25 c -38.404,-3.8139 -63.787,-10.913 -94.878,-26.537 -24.766,-12.445 -45.167,-27.34 -66.198,-48.329 -20.062,-20.023 -32.81,-36.761 -45.295,-59.472 -20.469,-37.236 -30.129,-74.612 -30.129,-116.57 0,-30.92 4.8493,-57.481 15.559,-85.219 26.624,-68.955 83.033,-124.95 151.84,-150.72 33.186,-12.43 70.696,-17.684 103.82,-14.543 61.945,5.8742 116.3,32.462 160.78,78.641 34.117,35.424 56.646,77.527 66.533,124.34 4.5218,21.409 5.814,53.789 3.0347,76.038 -5.5821,44.686 -22.956,85.801 -52.382,123.96 -3.6049,4.675 -13.109,15.055 -21.12,23.066 -8.0114,8.0113 -18.391,17.516 -23.066,21.12 -37.36,28.808 -77.476,46.094 -121.5,52.353 -10.081,1.4333 -39.589,2.6095 -47,1.8735 z m -394,-47.819 c -10.195,-2.5195 -17.468,-7.6235 -21.113,-14.818 -2.2442,-4.4286 -2.5378,-6.0973 -2.233,-12.688 0.48826,-10.556 3.942,-17.359 13.766,-27.117 l 7.5798,-7.5284 54.767,-23.28 c 38.237,-16.254 56.648,-23.586 61,-24.295 12.233,-1.9917 27.658,1.6721 35.277,8.3794 6.9831,6.1468 8.7265,10.397 8.2664,20.151 -0.50715,10.752 -3.8775,17.633 -13.311,27.177 l -7,7.0821 -53.5,22.839 c -29.425,12.561 -55.736,23.438 -58.468,24.171 -6.0771,1.6291 -18.287,1.593 -25.032,-0.074 z m 801,-6.331 c -3.5779,-0.52128 -110.65,-43.625 -115.05,-46.316 -5.4767,-3.3485 -15.405,-14.616 -18.189,-20.642 -3.4479,-7.4642 -4.2172,-17.506 -1.8216,-23.779 2.0043,-5.2482 8.8997,-11.884 15.118,-14.55 6.5393,-2.8031 16.753,-4.3194 24.862,-3.6912 6.2932,0.48752 13.217,3.0259 62.083,22.76 30.25,12.216 56.869,23.495 59.154,25.065 5.8322,4.0065 13.542,12.947 16.916,19.616 7.0828,13.999 2.3603,30.678 -10.552,37.265 -7.3424,3.7458 -22.481,5.735 -32.518,4.2727 z m -693.45,-284.99 c -4.9972,-0.93773 -111.69,-44.611 -115.66,-47.345 -5.5035,-3.7865 -12.594,-11.792 -16.516,-18.647 -4.3529,-7.6081 -5.1411,-17.618 -1.9543,-24.822 2.7074,-6.1204 4.3109,-7.9262 10.693,-12.041 6.7698,-4.3652 18.967,-6.9108 29.036,-6.0597 6.4401,0.54438 13.41,3.0972 62.054,22.727 30.14,12.162 56.221,22.981 57.958,24.042 5.168,3.1556 14.901,14.28 17.955,20.521 3.6144,7.3876 4.4286,17.339 1.9495,23.831 -1.994,5.2213 -8.8917,11.881 -15.031,14.513 -7.9436,3.405 -21.846,4.9021 -30.479,3.2821 z m 581.71,-5.3013 c -12.202,-2.0546 -21.698,-7.9153 -25.663,-15.839 -5.9108,-11.812 -1.6929,-26.527 11.38,-39.702 l 7.019,-7.0739 53.5,-22.846 c 29.425,-12.565 55.75,-23.475 58.5,-24.243 7.1327,-1.9927 22.333,-1.1494 29.645,1.6446 8.5531,3.2684 13.248,7.1517 16.376,13.545 2.4236,4.9537 2.6847,6.4303 2.267,12.823 -0.67933,10.397 -4.2468,17.362 -13.705,26.756 l -7.5827,7.5317 -54.809,23.28 c -60.926,25.878 -62.875,26.49 -76.927,24.123 z m -410.76,-158.9 c -9.7608,-2.9877 -22.659,-13.298 -27.189,-21.733 -1.4265,-2.6562 -12.6,-28.217 -24.831,-56.802 -24.658,-57.631 -25.25,-59.503 -23.165,-73.283 4.7775,-31.581 31.859,-38.784 55.748,-14.827 l 7.0627,7.0829 23.755,55.488 c 25.859,60.405 26.14,61.272 24.517,75.833 -1.4221,12.76 -7.7323,23.258 -16.397,27.279 -4.1742,1.9367 -14.631,2.453 -19.5,0.96272 z m 233.23,-3.1159 c -8.3724,-4.2662 -14.178,-13.985 -16.394,-27.447 -2.0404,-12.392 -1.318,-14.81 21.817,-73 11.808,-29.7 22.532,-55.8 23.832,-58 3.4666,-5.8685 12.098,-13.851 19.516,-18.05 14.704,-8.3225 31.617,-4.1804 38.386,9.4009 4.3576,8.7436 6.4368,22.276 4.7893,31.171 -1.6636,8.9814 -43.581,113.4 -47.866,119.24 -4.2182,5.7463 -11.549,11.802 -18.75,15.49 -7.2515,3.7136 -19.275,4.2815 -25.329,1.1964 z"
         inkscape:connector-curvature="0"
         style="fill:#fef500" />
    </g>
    <g
       id="g4145"
       transform="matrix(0.46448711,0,0,0.67461597,-337.33578,-18.567195)"
       clip-path="url(#clipPath4219)">
      <g
         id="g4108"
         style="fill:#0000ff">
        <ellipse
           id="ellipse4104"
           ry="11"
           cy="244"
           cx="257"
           rx="0" />
        <ellipse
           id="ellipse4106"
           ry="5"
           cy="245"
           cx="258"
           rx="0" />
      </g>
      <g
         id="g4116"
         style="fill:#007fff">
        <path
           id="path4110"
           d="m 257.64,337.6 c -6.8379,6.6258 -16.062,9.2235 -26.292,9.2235 -12.987,0 -24.808,-5.3008 -31.593,-15.32 -6.7318,10.231 -18.606,15.32 -31.752,15.32 -12.987,0 -24.702,-5.4068 -31.487,-15.426 -6.7324,10.337 -18.606,15.426 -31.911,15.426 -9.5945,0 -18.394,-2.1736 -25.02,-8.0575 L 74.5492,302.72 c 6.8914,9.1175 17.811,15.001 30.056,15.001 13.305,0 25.179,-6.5198 31.911,-16.856 6.7848,10.018 18.5,16.856 31.487,16.856 13.146,0 25.02,-6.5198 31.752,-16.75 6.7854,10.019 18.606,16.75 31.593,16.75 13.252,0 24.967,-6.8379 31.646,-17.174 l -5.3538,37.053 z"
           inkscape:connector-curvature="0" />
        <path
           id="path4112"
           d="m 382.64,337.6 c -6.8379,6.6258 -16.062,9.2235 -26.292,9.2235 -12.987,0 -24.808,-5.3008 -31.593,-15.32 -6.7318,10.231 -18.606,15.32 -31.752,15.32 -12.987,0 -24.702,-5.4068 -31.487,-15.426 -6.7324,10.337 -18.606,15.426 -31.911,15.426 -9.5945,0 -18.394,-2.1736 -25.02,-8.0575 l -5.0358,-36.046 c 6.8914,9.1175 17.811,15.001 30.056,15.001 13.305,0 25.179,-6.5198 31.911,-16.856 6.7848,10.018 18.5,16.856 31.487,16.856 13.146,0 25.02,-6.5198 31.752,-16.75 6.7854,10.019 18.606,16.75 31.593,16.75 13.252,0 24.967,-6.8379 31.646,-17.174 l -5.3538,37.053 z"
           inkscape:connector-curvature="0" />
        <path
           id="path4114"
           d="m 509.64,337.6 c -6.8378,6.6258 -16.062,9.2235 -26.292,9.2235 -12.987,0 -24.808,-5.3008 -31.593,-15.32 -6.7318,10.231 -18.606,15.32 -31.752,15.32 -12.987,0 -24.702,-5.4068 -31.487,-15.426 -6.7324,10.337 -18.606,15.426 -31.911,15.426 -9.5945,0 -18.394,-2.1736 -25.02,-8.0575 l -5.0358,-36.046 c 6.8914,9.1175 17.811,15.001 30.056,15.001 13.305,0 25.179,-6.5198 31.911,-16.856 6.7848,10.018 18.5,16.856 31.487,16.856 13.146,0 25.02,-6.5198 31.752,-16.75 6.7854,10.019 18.606,16.75 31.593,16.75 13.252,0 24.967,-6.8379 31.646,-17.174 l -5.3538,37.053 z"
           inkscape:connector-curvature="0" />
      </g>
      <g
         id="g4124"
         style="fill:#00ffff">
        <path
           id="path4118"
           d="m 256.64,370.6 c -6.8379,6.6258 -16.062,9.2235 -26.292,9.2235 -12.987,0 -24.808,-5.3008 -31.593,-15.32 -6.7318,10.231 -18.606,15.32 -31.752,15.32 -12.987,0 -24.702,-5.4068 -31.487,-15.426 -6.7324,10.337 -18.606,15.426 -31.911,15.426 -9.5945,0 -18.394,-2.1736 -25.02,-8.0575 L 73.5492,335.72 c 6.8914,9.1175 17.811,15.001 30.056,15.001 13.305,0 25.179,-6.5198 31.911,-16.856 6.7848,10.018 18.5,16.856 31.487,16.856 13.146,0 25.02,-6.5198 31.752,-16.75 6.7854,10.019 18.606,16.75 31.593,16.75 13.252,0 24.967,-6.8379 31.646,-17.174 l -5.3538,37.053 z"
           inkscape:connector-curvature="0" />
        <path
           id="path4120"
           d="m 382.64,370.6 c -6.8379,6.6258 -16.062,9.2235 -26.292,9.2235 -12.987,0 -24.808,-5.3008 -31.593,-15.32 -6.7318,10.231 -18.606,15.32 -31.752,15.32 -12.987,0 -24.702,-5.4068 -31.487,-15.426 -6.7324,10.337 -18.606,15.426 -31.911,15.426 -9.5945,0 -18.394,-2.1736 -25.02,-8.0575 l -5.0358,-36.046 c 6.8914,9.1175 17.811,15.001 30.056,15.001 13.305,0 25.179,-6.5198 31.911,-16.856 6.7848,10.018 18.5,16.856 31.487,16.856 13.146,0 25.02,-6.5198 31.752,-16.75 6.7854,10.019 18.606,16.75 31.593,16.75 13.252,0 24.967,-6.8379 31.646,-17.174 l -5.3538,37.053 z"
           inkscape:connector-curvature="0" />
        <path
           id="path4122"
           d="m 510.64,370.6 c -6.8378,6.6258 -16.062,9.2235 -26.292,9.2235 -12.987,0 -24.808,-5.3008 -31.593,-15.32 -6.7318,10.231 -18.606,15.32 -31.752,15.32 -12.987,0 -24.702,-5.4068 -31.487,-15.426 -6.7324,10.337 -18.606,15.426 -31.911,15.426 -9.5945,0 -18.394,-2.1736 -25.02,-8.0575 l -5.0358,-36.046 c 6.8914,9.1175 17.811,15.001 30.056,15.001 13.305,0 25.179,-6.5198 31.911,-16.856 6.7848,10.018 18.5,16.856 31.487,16.856 13.146,0 25.02,-6.5198 31.752,-16.75 6.7854,10.019 18.606,16.75 31.593,16.75 13.252,0 24.967,-6.8379 31.646,-17.174 l -5.3538,37.053 z"
           inkscape:connector-curvature="0" />
      </g>
    </g>
    <g
       id="g4178"
       transform="matrix(0.26458333,0,0,0.26458333,-176.31099,-20.864428)"
       style="stroke-width:0">
      <text
         id="text4168"
         xml:space="preserve"
         stroke-linejoin="null"
         font-size="24"
         y="231"
         x="71"
         style="font-size:24px;font-family:Arial;text-anchor:middle;opacity:0.5;stroke:#096388;stroke-dasharray:none" />
      <path
         id="path4170"
         d="m 187,43.5 c 32.567,40.133 -16.167,101 -76,203.5 -59.833,102.5 74,154.17 84.667,155.17 10.667,1 -52,-39.167 -32.167,-100.17 C 183.333,241 231.033,206.467 243,159.9 254.967,113.333 154.433,3.37 187,43.5 Z"
         inkscape:connector-curvature="0"
         style="fill:url(#d);stroke:url(#linearGradient4203);stroke-linejoin:round" />
      <g
         id="g4176"
         stroke-linejoin="null"
         style="fill:url(#linearGradient4213);stroke:url(#linearGradient4215)">
        <path
           id="path4172"
           d="m 268.56,161.45 c 2.8655,6.7754 3.6942,18.909 -0.71606,32.924 -4.4103,14.014 -10.06,24.309 -22.15,41.006 -12.09,16.697 -23.67,27.389 -47.304,63.122 -23.633,35.733 17.157,74.648 9.8644,61.651 -7.2926,-12.997 5.298,-36.78 17.459,-52.519 12.161,-15.738 20.191,-22.921 32.048,-38.12 11.857,-15.199 23.687,-39.454 24.555,-53.206 0.86816,-13.752 0.95346,-18.142 -3.6351,-33.244 -4.58856,-15.102 -15.853,-35.165 -10.122,-21.614 z"
           transform="rotate(-3.264,236.86,259.84)"
           inkscape:connector-curvature="0"
           style="fill:url(#linearGradient4205);stroke:url(#linearGradient4207)" />
        <path
           id="path4174"
           d="m 241.62,393.22 c -5.1723,9.1626 -6.6482,-19.291 2.5574,-43.922 9.2056,-24.631 38.264,-46.296 50.758,-69.597 12.494,-23.301 20.385,-58.537 10.368,-77.282 -10.017,-18.745 1.7688,2.1575 10.212,15.57 8.4437,13.413 13.196,23.27 12.985,45.203 -0.21112,21.933 -5.9426,47.65 -43.783,81.278 -37.841,33.628 -37.925,39.587 -43.097,48.75 z"
           inkscape:connector-curvature="0"
           style="fill:url(#linearGradient4209);stroke:url(#linearGradient4211);stroke-dasharray:none" />
      </g>
    </g>
    <g
       id="g4229"
       transform="matrix(0.12591622,0,0,0.1327373,-272.52068,-56.316054)"
       style="fill:#1f89ef;shape-rendering:auto">
      <path
         id="path4223"
         style="color:#000000;isolation:auto;mix-blend-mode:normal;solid-color:#000000;color-rendering:auto;image-rendering:auto"
         d="m 262.16,415.93 v 78.658 l -60.881,-35.15 -30.715,53.197 91.596,52.883 v 336.08 l -91.596,52.883 30.715,53.197 60.881,-35.15 v 79.83 h 61.43 V 971.54 l 58.93,34.023 30.713,-53.197 L 323.59,900.61 V 566.5 l 89.643,-51.756 -30.713,-53.197 -58.93,34.023 v -79.646 h -61.43 z"
         inkscape:connector-curvature="0" />
      <path
         id="path4225"
         style="color:#000000;isolation:auto;mix-blend-mode:normal;solid-color:#000000;color-rendering:auto;image-rendering:auto"
         d="M 423.06,518.31 V 624.08 L 132.01,792.12 40.412,739.237 9.699,792.434 70.582,827.584 1.447,867.5 32.16,920.699 102.15,880.291 v 68.045 h 61.428 v -103.51 l 289.34,-167.05 89.643,51.756 30.715,-53.197 -58.93,-34.023 68.975,-39.822 -30.715,-53.199 -68.119,39.328 V 518.32 l -61.428,-0.002 z"
         inkscape:connector-curvature="0" />
      <path
         id="path4227"
         style="color:#000000;isolation:auto;mix-blend-mode:normal;solid-color:#000000;color-rendering:auto;image-rendering:auto"
         d="m 99.85,518.07 v 70.299 L 30.715,548.455 0,601.654 l 69.99,40.408 -58.93,34.023 30.713,53.197 89.645,-51.756 289.34,167.05 v 103.51 h 61.428 v -68.045 l 68.975,39.822 30.715,-53.199 -68.121,-39.33 60.883,-35.15 -30.713,-53.197 -91.596,52.883 -291.05,-168.04 V 518.06 H 99.851 Z"
         inkscape:connector-curvature="0" />
    </g>
    <g
       id="g4303"
       transform="matrix(2.8764314,0,0,2.5708688,331.15227,20.106412)"
       inkscape:transform-center-x="1020.3231"
       inkscape:transform-center-y="-147.1754"
       clip-path="url(#clipPath4309)">
      <g
         id="g4270"
         transform="matrix(0.022438,0,0,0.020868,44.068,40.547)">
        <path
           style="opacity:0.40206;fill:url(#e-1)"
           id="path4264"
           d="M -1559.3,-150.7 H -219.7 V 327.66 H -1559.3 Z"
           inkscape:connector-curvature="0" />
        <path
           id="path4266"
           d="m -219.62,-150.68 v 478.33 c 142.87,0.90045 345.4,-107.17 345.4,-239.2 0,-132.03 -159.44,-239.13 -345.4,-239.13 z"
           inkscape:connector-curvature="0"
           style="opacity:0.40206;fill:url(#c)" />
        <path
           id="path4268"
           d="m -1559.3,-150.68 v 478.33 c -142.87,0.90045 -345.4,-107.17 -345.4,-239.2 0,-132.03 159.44,-239.13 345.4,-239.13 z"
           inkscape:connector-curvature="0"
           style="opacity:0.40206;fill:url(#b)" />
      </g>
      <path
         style="fill:url(#d-2);fill-rule:evenodd;stroke:#9b9b9b;stroke-linejoin:bevel;stroke-miterlimit:10"
         id="path4272"
         stroke-miterlimit="10"
         d="m 9.8696,3.5234 h 29.152 a 5.4548,5.4548 0 0 1 5.4548,5.4548 v 29.152 A 5.4548,5.4548 0 0 1 39.0216,43.585 H 9.8696 A 5.4548,5.4548 0 0 1 4.4148,38.1302 V 8.9782 A 5.4548,5.4548 0 0 1 9.8696,3.5234"
         inkscape:connector-curvature="0" />
      <path
         id="path4274"
         stroke-miterlimit="10"
         d="m 9.84,4.706 h 29.211 a 4.2426,4.2426 0 0 1 4.2426,4.2426 v 29.211 A 4.2426,4.2426 0 0 1 39.051,42.4022 H 9.84 A 4.2426,4.2426 0 0 1 5.5974,38.1596 V 8.9486 A 4.2426,4.2426 0 0 1 9.84,4.706"
         inkscape:connector-curvature="0"
         style="fill:none;stroke:#ffffff;stroke-linejoin:bevel;stroke-miterlimit:10" />
      <path
         id="path4276"
         display="block"
         d="M 11.5,31.436 C 11.94044,20.097 22.043,11.323 32.159,21.9789 l 4.91,-4.7333 0.01958,14.754 -14.928,-0.02193 4.8376,-4.8376 c -8.4692,-8.8762 -13.706,-1.91 -15.498,4.296 z"
         inkscape:connector-curvature="0"
         style="display:block;opacity:0.6988602;fill:#888a85" />
    </g>
    <g
       id="g4319"
       transform="matrix(2.884591,0,0,2.8823751,-3398.2484,-1595.806)"
       style="stroke:#000000;enable-background:new">
      <path
         id="path4313"
         d="m 1337.4,551.74 3.9286,5.7143 12.678,1.7857 c 0,0 -4.2857,-8.75 -7.6785,-10.357 -3.3928,-1.607 -9.1072,2.8572 -8.9286,2.8572 z"
         inkscape:connector-curvature="0"
         style="fill:#ffffff;stroke-width:1.81500006" />
      <path
         id="path4315"
         d="m 1333.8,547.18 c 3.4213,-0.25953 11.964,1.4286 11.964,1.4286 -4.2204,-2.2019 -14.643,12.857 -16.429,18.036 -6.8567,-3.2594 -5.1691,-17.885 4.4643,-19.464 z"
         inkscape:connector-curvature="0" />
      <path
         id="path4317"
         d="m 1319.4,558.59 c 1.0701,-0.0519 19.479,3.5242 19.479,3.5242 l -14.615,11.973 -4.864,-15.497 z"
         inkscape:connector-curvature="0" />
    </g>
    <g
       id="g4545"
       transform="matrix(0.38817037,0,0,0.46861726,-318.02081,-186.81854)"
       clip-path="url(#clipPath4555)">
      <path
         id="path4333"
         d="m 4.0155,4.7434 2.9844,10.14 1.2232,4.5423 -1.2232,4.5423 -2.9844,10.14 29.757,-11.327 c 0,0 83.629,-0.27025 84.065,-0.14254 -5.217,5.6824 -9.6992,10.472 -9.6992,10.472 12.134,-3.3518 20.789,-10.582 30.85,-13.684 -10.061,-3.1017 -18.716,-10.332 -30.85,-13.684 0,-3e-7 4.4822,4.7897 9.6992,10.472 L 33.7725,16.07192 4.0155,4.74492 Z"
         inkscape:connector-curvature="0" />
      <path
         id="path4335"
         d="m 8.8328,39.242 c 4.6844,2.4611 7.5219,13.966 7.4341,15.585 -0.08776,1.6185 -2.7497,13.18 -7.4341,15.642 9.4995,-4.4992 34.263,-12.13 44.749,-11.46 l 64.392,0.17105 c -0.85167,6.425 -6.2583,10.102 -5.3674,10.101 13.155,-5.5e-5 26.065,-12.801 26.009,-14.425 -0.0552,-1.6192 -12.854,-14.425 -26.009,-14.425 -0.89085,-6e-6 4.5158,3.6765 5.3674,10.101 l -64.392,0.17105 c -11.164,0.66973 -35.25,-6.9612 -44.749,-11.46 z"
         inkscape:connector-curvature="0" />
      <path
         id="path4337"
         d="M 5.8035,72.072 9.272,86.754 5.8035,101.436 18.6265,90.831 15.769,101.436 28.538,90.831 25.7345,101.436 38.5485,90.831 h 83.159 l -2.5699,10.605 26.467,-14.682 -26.467,-14.682 2.5699,10.615 H 38.5485 L 25.7345,72.072 28.538,82.687 15.769,72.072 18.6265,82.687 Z"
         inkscape:connector-curvature="0" />
      <path
         id="path4339"
         d="m 7.7896,115.4 3.6776,14.682 -3.6776,14.682 h 26.788 l 2.9744,-10.605 h 83.653 l -3.0124,10.605 38.049,-14.682 -38.049,-14.682 3.0124,10.615 H 37.552 L 34.5776,115.4 Z"
         inkscape:connector-curvature="0" />
      <path
         id="path4341"
         d="m 7.7991,159.58 3.6681,14.682 -3.6681,14.682 h 4.2763 l 3.0314,-10.615 h 4.2763 l -3.0314,10.615 h 4.2858 l 3.0219,-10.615 h 4.2763 l -3.0124,10.615 h 4.2763 l 3.0124,-10.615 h 4.2763 l -3.0124,10.615 h 4.2763 l 3.0124,-10.615 h 97.119 l -3.269,10.615 c 11.045,-5.5495 24.206,-10.281 38.059,-14.682 -13.853,-4.4006 -27.014,-9.1324 -38.059,-14.682 l 3.269,10.605 H 40.7646 L 37.7522,159.58 h -4.2763 l 3.0124,10.605 H 32.212 L 29.1996,159.58 h -4.2763 l 3.0124,10.605 H 23.6594 L 20.6375,159.58 h -4.2858 l 3.0314,10.605 H 15.1068 L 12.0754,159.58 Z"
         inkscape:connector-curvature="0" />
      <path
         id="path4343"
         d="m 138.6,4.0155 10.413,15.898 -10.413,15.898 h 3.8471 l 7.6515,-10.615 h 3.8472 l -7.6516,10.615 h 3.8557 l 7.643,-10.615 h 3.8557 l -7.643,10.615 h 3.8557 l 7.6344,-10.615 h 3.8471 l -7.6344,10.615 h 3.8471 l 7.6344,-10.615 h 55.63 v 10.472 l 32.393,-15.756 -32.393,-15.746 v 10.463 h -55.638 l -7.6344,-10.615 h -3.8471 l 7.6344,10.615 h -3.8471 l -7.6344,-10.615 h -3.8471 l 7.6344,10.615 h -3.8471 l -7.643,-10.615 h -3.8557 l 7.6516,10.615 h -3.8472 l -7.6515,-10.615 h -3.8471 z"
         inkscape:connector-curvature="0" />
      <path
         id="path4345"
         d="m 193.58,180.43 h -14.488 v -10.98 h 14.488 v -12.076 l 47.307,17.211 -47.307,17.283 z"
         inkscape:connector-curvature="0" />
      <path
         id="path4347"
         d="M 204.62,132.23 H 159.864 V 106.946 H 204.62 V 92.498 l 36.242,27.09 -36.242,27.09 z m 9.6859,-29.335 v 8.5663 h -44.476 v 16.254 h 44.476 v 8.5663 l 20.284,-16.693 -20.284,-16.693 z"
         inkscape:connector-curvature="0" />
      <path
         id="path4349"
         d="m 167.8,300.18 h -17.919 v -19.246 l 17.919,1.4e-4 v -6.6111 l 29.088,16.336 -29.088,16.158 v -6.6367 z"
         inkscape:connector-curvature="0" />
      <path
         id="path4351"
         d="m 149.94,43.839 h 5.0835 l 1.2854,19.872 h 72.539 l -3.6036,-4.1129 c -5.0222,-6.0956 -11.229,-19.99 -9.8948,-18.66 l 25.065,24.99 -25.065,26.298 c -0.36518,0.38314 1.769,-9.5604 9.6595,-18.754 l 3.6452,-4.2778 h -72.345 l -1.2854,18.775 h -5.0835 v -44.13 z"
         inkscape:connector-curvature="0" />
      <path
         id="path4353"
         d="m 8.5265,255.87 24.656,-27.09 -24.656,-27.09 h 62.868 l 28.864,27.09 -28.864,27.09 z"
         inkscape:connector-curvature="0" />
      <g
         id="g4361"
         transform="matrix(0.22191,0,0,0.23904,101.13,-11.762)">
        <path
           id="path4355"
           d="M 19.691,1006.8 80.502,939.986 19.691,873.172 h 155.06 l 59.688,66.814 -59.688,66.814 z"
           inkscape:connector-curvature="0" />
        <path
           id="path4357"
           d="m 193.69,1006.8 60.811,-66.814 -60.811,-66.814 h 155.06 l 59.688,66.814 -59.688,66.814 z"
           inkscape:connector-curvature="0"
           style="fill:none;stroke:#000000" />
        <path
           id="path4359"
           d="m 367.69,1006.8 60.811,-66.814 -60.811,-66.814 h 155.06 l 59.688,66.814 -59.688,66.814 z"
           inkscape:connector-curvature="0" />
      </g>
      <path
         id="path4363"
         d="m 104.74,257.96 c 0.17712,4.068 9.8922,15.527 4.7894,17.675 -50.705,1.8221 -68.925,-0.80053 -69.618,-2.4327 l -3.9912,-9.3983 h -2.6323 l 2.1666,9.3983 H 32.214 L 28.2228,263.804 H 25.6 l 2.1571,9.3983 h -3.2405 l -3.9912,-9.3983 h -2.6418 l 2.1761,9.3983 h -3.231 l -4.0102,-9.3983 h -2.6323 c 4.524,10.437 3.9854,21.055 0,31.796 h 2.6323 l 4.0102,-9.3983 h 3.231 L 17.8836,295.6 h 2.6418 l 3.9912,-9.3983 h 3.2405 L 25.6,295.6 h 2.6228 l 3.9912,-9.3983 h 3.2405 L 33.2879,295.6 h 2.6323 l 3.9912,-9.3983 c 0.69314,-1.6322 18.913,-4.2548 69.618,-2.4327 5.1027,2.148 -4.6123,13.607 -4.7894,17.675 5.8864,-5.722 25.842,-17.472 35.598,-21.742 -9.756,-4.2709 -29.711,-16.02 -35.598,-21.742 z"
         inkscape:connector-curvature="0" />
      <path
         id="path4365"
         d="m 145.85,238.17 c 1.819,5.5288 4.8085,7.5432 5.5784,16.592 -0.7699,9.0487 -3.7594,11.054 -5.5784,16.582 6.7011,-4.8779 12.268,-11.042 21.191,-13.38 l 30.504,0.0665 c 5.1569,2.0458 -2.1737,12.639 -1.2829,12.639 13.155,-5e-5 16.724,-12.765 27.055,-15.908 -10.33,-3.1426 -13.9,-15.908 -27.055,-15.908 -0.89086,-1e-5 6.4398,10.583 1.2829,12.629 l -30.504,0.076 c -8.9232,-2.3383 -14.49,-8.5116 -21.191,-13.389 z"
         inkscape:connector-curvature="0" />
      <path
         id="path4367"
         d="m 4.7434,564.02 10.14,-2.9843 4.5423,-1.2233 4.5423,1.2233 10.14,2.9843 -11.327,-29.757 c 0,0 -0.27025,-83.629 -0.14254,-84.065 5.6824,5.217 10.472,9.6991 10.472,9.6991 -3.3518,-12.134 -10.582,-20.789 -13.684,-30.85 -3.1017,10.061 -10.332,18.716 -13.684,30.85 -3e-7,0 4.7897,-4.4822 10.472,-9.6991 l -0.14254,84.065 -11.327,29.757 z"
         inkscape:connector-curvature="0" />
      <path
         id="path4369"
         d="m 39.242,559.2 c 2.4611,-4.6844 13.966,-7.5219 15.585,-7.4342 1.6185,0.0878 13.18,2.7497 15.642,7.4342 -4.4992,-9.4995 -12.13,-34.263 -11.46,-44.749 l 0.17105,-64.392 c 6.425,0.85167 10.101,6.2583 10.101,5.3674 -5.5e-5,-13.155 -12.801,-26.065 -14.425,-26.009 -1.6192,0.0552 -14.425,12.854 -14.425,26.009 -6e-6,0.89086 3.6765,-4.5158 10.101,-5.3674 l 0.17105,64.392 c 0.66973,11.164 -6.9612,35.25 -11.46,44.749 z"
         inkscape:connector-curvature="0" />
      <path
         id="path4371"
         d="m 72.072,562.23 14.682,-3.4685 14.682,3.4685 -10.605,-12.823 10.605,2.8574 -10.605,-12.769 10.605,2.8035 -10.605,-12.814 v -83.159 l 10.605,2.5699 -14.682,-26.467 -14.682,26.467 10.615,-2.5699 v 83.159 l -10.615,12.814 10.615,-2.8035 -10.615,12.769 10.615,-2.8574 z"
         inkscape:connector-curvature="0" />
      <path
         id="path4373"
         d="m 115.4,560.24 14.682,-3.6776 14.682,3.6776 v -26.788 l -10.605,-2.9744 v -83.653 l 10.605,3.0124 -14.682,-38.049 -14.682,38.049 10.615,-3.0124 v 83.653 L 115.4,533.452 Z"
         inkscape:connector-curvature="0" />
      <path
         id="path4375"
         d="m 159.58,560.23 14.682,-3.6681 14.682,3.6681 v -4.2763 l -10.615,-3.0314 v -4.2763 l 10.615,3.0314 v -4.2858 l -10.615,-3.0219 v -4.2763 l 10.615,3.0124 v -4.2763 l -10.615,-3.0124 v -4.2763 l 10.615,3.0124 v -4.2763 l -10.615,-3.0124 v -97.119 l 10.615,3.269 c -5.5495,-11.045 -10.281,-24.206 -14.682,-38.059 -4.4006,13.853 -9.1324,27.014 -14.682,38.059 l 10.605,-3.269 v 97.119 l -10.605,3.0124 v 4.2763 l 10.605,-3.0124 v 4.2763 l -10.605,3.0124 v 4.2763 l 10.605,-3.0124 v 4.2763 l -10.605,3.0219 v 4.2858 l 10.605,-3.0314 v 4.2763 l -10.605,3.0314 z"
         inkscape:connector-curvature="0" />
      <path
         id="path4377"
         d="m 4.0155,429.43 15.898,-10.413 15.898,10.413 v -3.8471 l -10.615,-7.6516 v -3.8471 l 10.615,7.6515 V 417.88 l -10.615,-7.643 v -3.8557 l 10.615,7.643 v -3.8557 l -10.615,-7.6344 v -3.8472 l 10.615,7.6344 v -3.8471 l -10.615,-7.6345 v -55.63 h 10.472 l -15.756,-32.393 -15.746,32.393 h 10.463 v 55.638 l -10.615,7.6345 v 3.8471 l 10.615,-7.6344 v 3.8471 l -10.615,7.6344 v 3.8472 l 10.615,-7.6345 v 3.8471 l -10.615,7.643 v 3.8557 l 10.615,-7.6515 v 3.8471 l -10.615,7.6516 v 3.8471 z"
         inkscape:connector-curvature="0" />
      <path
         id="path4379"
         d="m 180.43,374.45 v 14.488 H 169.45 V 374.45 h -12.076 l 17.211,-47.307 17.283,47.307 z"
         inkscape:connector-curvature="0" />
      <path
         id="path4381"
         d="m 132.23,363.42 v 44.756 H 106.946 V 363.42 H 92.498 l 27.09,-36.242 27.09,36.242 z m -29.335,-9.6859 h 8.5663 v 44.476 h 16.254 v -44.476 h 8.5663 l -16.693,-20.284 -16.693,20.284 z"
         inkscape:connector-curvature="0" />
      <path
         id="path4383"
         d="m 300.18,400.24 v 17.919 h -19.246 l 1.4e-4,-17.919 h -6.6111 l 16.336,-29.088 16.158,29.088 h -6.6367 z"
         inkscape:connector-curvature="0" />
      <path
         id="path4385"
         d="m 43.839,418.09 v -5.0835 l 19.872,-1.2854 v -72.539 l -4.1129,3.6036 c -6.0956,5.0222 -19.99,11.229 -18.66,9.8948 l 24.99,-25.065 26.298,25.065 c 0.38314,0.36519 -9.5604,-1.769 -18.754,-9.6595 l -4.2778,-3.6452 v 72.345 l 18.775,1.2854 v 5.0835 h -44.13 z"
         inkscape:connector-curvature="0" />
      <path
         id="path4387"
         d="M 255.87,559.5 228.78,534.844 201.69,559.5 v -62.868 l 27.09,-28.864 27.09,28.864 z"
         inkscape:connector-curvature="0" />
      <g
         id="g4395"
         transform="matrix(0,-0.22191,0.23904,0,-11.762,466.9)">
        <path
           id="path4389"
           d="M 19.691,1006.8 80.502,939.986 19.691,873.172 h 155.06 l 59.688,66.814 -59.688,66.814 z"
           inkscape:connector-curvature="0" />
        <path
           id="path4391"
           d="m 193.69,1006.8 60.811,-66.814 -60.811,-66.814 h 155.06 l 59.688,66.814 -59.688,66.814 z"
           inkscape:connector-curvature="0"
           style="fill:none;stroke:#000000" />
        <path
           id="path4393"
           d="m 367.69,1006.8 60.811,-66.814 -60.811,-66.814 h 155.06 l 59.688,66.814 -59.688,66.814 z"
           inkscape:connector-curvature="0" />
      </g>
      <path
         id="path4397"
         d="m 257.96,463.29 c 4.068,-0.17713 15.527,-9.8922 17.675,-4.7894 1.8221,50.705 -0.80054,68.925 -2.4327,69.618 l -9.3983,3.9912 v 2.6323 l 9.3983,-2.1666 v 3.2405 l -9.3983,3.9912 v 2.6228 l 9.3983,-2.1572 v 3.2405 l -9.3983,3.9912 v 2.6418 l 9.3983,-2.1762 v 3.231 l -9.3983,4.0102 v 2.6323 c 10.437,-4.524 21.055,-3.9854 31.796,0 v -2.6323 l -9.3983,-4.0102 v -3.231 l 9.3983,2.1762 v -2.6418 l -9.3983,-3.9912 v -3.2405 L 295.6,542.43 v -2.6228 l -9.3983,-3.9912 v -3.2405 l 9.3983,2.1666 v -2.6323 l -9.3983,-3.9912 c -1.6322,-0.69314 -4.2548,-18.913 -2.4327,-69.618 2.148,-5.1028 13.607,4.6123 17.675,4.7894 -5.722,-5.8864 -17.472,-25.842 -21.742,-35.598 -4.2709,9.756 -16.02,29.711 -21.742,35.598 z"
         inkscape:connector-curvature="0" />
      <path
         id="path4399"
         d="m 238.17,422.18 c 5.5288,-1.819 7.5432,-4.8085 16.592,-5.5784 9.0487,0.76989 11.054,3.7593 16.582,5.5784 -4.8779,-6.701 -11.042,-12.268 -13.38,-21.191 l 0.0665,-30.504 c 2.0458,-5.1569 12.639,2.1737 12.639,1.2829 -5e-5,-13.155 -12.765,-16.724 -15.908,-27.055 -3.1426,10.33 -15.908,13.9 -15.908,27.055 0,0.89087 10.583,-6.4398 12.629,-1.2829 l 0.076,30.504 c -2.3383,8.9232 -8.5116,14.49 -13.389,21.191 z"
         inkscape:connector-curvature="0" />
      <path
         id="path4401"
         d="m 563.29,4.0155 -10.139,2.9844 -4.5424,1.2232 -4.5423,-1.2232 -10.14,-2.9844 11.327,29.757 c 0,0 0.27025,83.629 0.14256,84.065 -5.6824,-5.217 -10.472,-9.6992 -10.472,-9.6992 3.3518,12.134 10.582,20.789 13.684,30.85 3.1017,-10.061 10.332,-18.716 13.684,-30.85 0,0 -4.7897,4.4822 -10.472,9.6992 l 0.14252,-84.065 11.327,-29.757 z"
         inkscape:connector-curvature="0" />
      <path
         id="path4403"
         d="m 528.79,8.8328 c -2.4611,4.6844 -13.966,7.5219 -15.585,7.4341 -1.6185,-0.08776 -13.18,-2.7497 -15.642,-7.4341 4.4992,9.4995 12.13,34.263 11.46,44.749 l -0.17105,64.392 c -6.425,-0.85167 -10.101,-6.2583 -10.101,-5.3674 6e-5,13.155 12.801,26.065 14.425,26.009 1.6192,-0.0552 14.425,-12.854 14.425,-26.009 0,-0.89085 -3.6765,4.5158 -10.102,5.3674 l -0.17105,-64.392 c -0.66973,-11.164 6.9612,-35.25 11.46,-44.749 z"
         inkscape:connector-curvature="0" />
      <path
         id="path4405"
         d="m 495.96,5.8035 -14.682,3.4685 -14.682,-3.4685 10.605,12.823 -10.605,-2.8575 10.605,12.769 -10.605,-2.8035 10.605,12.814 v 83.159 l -10.605,-2.5699 14.682,26.467 14.682,-26.467 -10.615,2.5699 v -83.159 l 10.615,-12.814 -10.615,2.8035 10.615,-12.769 -10.615,2.8575 z"
         inkscape:connector-curvature="0" />
      <path
         id="path4407"
         d="m 452.64,7.7896 -14.682,3.6776 -14.682,-3.6776 v 26.788 l 10.605,2.9744 v 83.653 l -10.605,-3.0124 14.682,38.049 14.682,-38.049 -10.615,3.0124 V 37.552 l 10.615,-2.9744 z"
         inkscape:connector-curvature="0" />
      <path
         id="path4409"
         d="m 408.45,7.7991 -14.682,3.6681 -14.682,-3.6681 v 4.2763 l 10.615,3.0314 v 4.2763 l -10.615,-3.0314 v 4.2858 l 10.615,3.0219 v 4.2763 l -10.615,-3.0124 v 4.2763 l 10.615,3.0124 v 4.2763 l -10.615,-3.0124 v 4.2763 l 10.615,3.0124 v 97.119 l -10.615,-3.269 c 5.5495,11.045 10.281,24.206 14.682,38.059 4.4006,-13.853 9.1324,-27.014 14.682,-38.059 l -10.605,3.269 v -97.119 l 10.605,-3.0124 v -4.2763 l -10.605,3.0124 V 32.212 l 10.605,-3.0124 v -4.2763 l -10.605,3.0124 v -4.2763 l 10.605,-3.0219 v -4.2858 l -10.605,3.0314 v -4.2763 l 10.605,-3.0314 z"
         inkscape:connector-curvature="0" />
      <path
         id="path4411"
         d="M 564.02,138.6 548.122,149.013 532.224,138.6 v 3.8471 l 10.615,7.6515 v 3.8472 l -10.615,-7.6516 v 3.8557 l 10.615,7.643 v 3.8557 l -10.615,-7.643 v 3.8557 l 10.615,7.6344 v 3.8471 l -10.615,-7.6344 v 3.8471 l 10.615,7.6344 v 55.63 h -10.472 l 15.756,32.393 15.746,-32.393 h -10.463 v -55.638 l 10.615,-7.6344 v -3.8471 l -10.615,7.6344 v -3.8471 l 10.615,-7.6344 v -3.8471 l -10.615,7.6344 v -3.8471 l 10.615,-7.643 v -3.8557 l -10.615,7.6516 v -3.8472 l 10.615,-7.6515 v -3.8471 z"
         inkscape:connector-curvature="0" />
      <path
         id="path4413"
         d="m 387.6,193.58 v -14.488 h 10.98 v 14.488 h 12.076 l -17.211,47.307 -17.283,-47.307 z"
         inkscape:connector-curvature="0" />
      <path
         id="path4415"
         d="m 435.8,204.62 v -44.756 h 25.284 v 44.756 h 14.448 l -27.09,36.242 -27.09,-36.242 z m 29.335,9.6859 h -8.5663 v -44.476 h -16.254 v 44.476 h -8.5663 l 16.693,20.284 16.693,-20.284 z"
         inkscape:connector-curvature="0" />
      <path
         id="path4417"
         d="m 267.85,167.8 v -17.919 h 19.246 l -1.4e-4,17.919 h 6.6111 l -16.336,29.088 -16.158,-29.088 h 6.6367 z"
         inkscape:connector-curvature="0" />
      <path
         id="path4419"
         d="m 524.19,149.94 v 5.0835 l -19.872,1.2854 v 72.539 l 4.1129,-3.6036 c 6.0956,-5.0222 19.99,-11.229 18.66,-9.8948 l -24.99,25.065 -26.298,-25.065 c -0.38312,-0.36518 9.5604,1.769 18.754,9.6595 l 4.2778,3.6452 v -72.345 l -18.775,-1.2854 v -5.0835 h 44.13 z"
         inkscape:connector-curvature="0" />
      <path
         id="path4421"
         d="m 312.16,8.5265 27.09,24.656 27.09,-24.656 v 62.868 l -27.09,28.864 -27.09,-28.864 z"
         inkscape:connector-curvature="0" />
      <g
         id="g4429"
         transform="matrix(0,0.22191,-0.23904,0,579.79,101.13)">
        <path
           id="path4423"
           d="M 19.691,1006.8 80.502,939.986 19.691,873.172 h 155.06 l 59.688,66.814 -59.688,66.814 z"
           inkscape:connector-curvature="0" />
        <path
           id="path4425"
           d="m 193.69,1006.8 60.811,-66.814 -60.811,-66.814 h 155.06 l 59.688,66.814 -59.688,66.814 z"
           inkscape:connector-curvature="0"
           style="fill:none;stroke:#000000" />
        <path
           id="path4427"
           d="m 367.69,1006.8 60.811,-66.814 -60.811,-66.814 h 155.06 l 59.688,66.814 -59.688,66.814 z"
           inkscape:connector-curvature="0" />
      </g>
      <path
         id="path4431"
         d="m 310.07,104.74 c -4.068,0.17712 -15.527,9.8922 -17.675,4.7894 -1.8221,-50.705 0.80054,-68.925 2.4327,-69.618 l 9.3983,-3.9912 v -2.6323 l -9.3983,2.1666 V 32.214 l 9.3983,-3.9912 V 25.6 l -9.3983,2.1571 v -3.2405 l 9.3983,-3.9912 v -2.6418 l -9.3983,2.1761 v -3.231 l 9.3983,-4.0102 v -2.6323 c -10.437,4.524 -21.055,3.9854 -31.796,0 v 2.6323 l 9.3983,4.0102 v 3.231 L 272.43,17.8836 v 2.6418 l 9.3983,3.9912 v 3.2405 L 272.43,25.6 v 2.6228 l 9.3983,3.9912 v 3.2405 L 272.43,33.2879 v 2.6323 l 9.3983,3.9912 c 1.6322,0.69314 4.2548,18.913 2.4327,69.618 -2.148,5.1027 -13.607,-4.6123 -17.675,-4.7894 5.722,5.8864 17.472,25.842 21.742,35.598 4.2709,-9.756 16.02,-29.711 21.742,-35.598 z"
         inkscape:connector-curvature="0" />
      <path
         id="path4433"
         d="m 329.87,145.85 c -5.5288,1.819 -7.5432,4.8085 -16.592,5.5784 -9.0487,-0.7699 -11.054,-3.7594 -16.582,-5.5784 4.8779,6.7011 11.042,12.268 13.38,21.191 l -0.0665,30.504 c -2.0458,5.1569 -12.639,-2.1737 -12.639,-1.2829 5e-5,13.155 12.765,16.724 15.908,27.055 3.1426,-10.33 15.908,-13.9 15.908,-27.055 0,-0.89086 -10.583,6.4398 -12.629,1.2829 l -0.076,-30.504 c 2.3383,-8.9232 8.5115,-14.49 13.389,-21.191 z"
         inkscape:connector-curvature="0" />
      <path
         id="path4435"
         d="m 564.02,563.29 -2.9843,-10.139 -1.2233,-4.5424 1.2233,-4.5423 2.9843,-10.14 -29.757,11.327 c 0,0 -83.629,0.27025 -84.065,0.14256 5.217,-5.6824 9.6991,-10.472 9.6991,-10.472 -12.134,3.3518 -20.789,10.582 -30.85,13.684 10.061,3.1017 18.716,10.332 30.85,13.684 0,0 -4.4822,-4.7897 -9.6991,-10.472 l 84.065,0.14252 29.757,11.327 z"
         inkscape:connector-curvature="0" />
      <path
         id="path4437"
         d="m 559.2,528.79 c -4.6844,-2.4611 -7.5219,-13.966 -7.4342,-15.585 0.0877,-1.619 2.7497,-13.18 7.4342,-15.642 -9.4995,4.4992 -34.263,12.13 -44.749,11.46 l -64.392,-0.17106 c 0.85167,-6.425 6.2583,-10.101 5.3674,-10.101 -13.155,6e-5 -26.065,12.801 -26.009,14.425 0.0552,1.6192 12.854,14.425 26.009,14.425 0.89086,0 -4.5158,-3.6765 -5.3674,-10.102 l 64.392,-0.17105 c 11.164,-0.66973 35.25,6.9612 44.749,11.46 z"
         inkscape:connector-curvature="0" />
      <path
         id="path4439"
         d="m 562.23,495.96 -3.4685,-14.682 3.4685,-14.682 -12.823,10.605 2.8574,-10.605 -12.769,10.605 2.8035,-10.605 -12.814,10.605 h -83.159 l 2.5699,-10.605 -26.467,14.682 26.467,14.682 -2.5699,-10.615 h 83.159 l 12.814,10.615 -2.8035,-10.615 12.769,10.615 -2.8574,-10.615 z"
         inkscape:connector-curvature="0" />
      <path
         id="path4441"
         d="m 560.24,452.64 -3.6776,-14.682 3.6776,-14.682 h -26.788 l -2.9744,10.605 h -83.653 l 3.0124,-10.605 -38.049,14.682 38.049,14.682 -3.0124,-10.615 h 83.653 l 2.9744,10.615 z"
         inkscape:connector-curvature="0" />
      <path
         id="path4443"
         d="m 560.23,408.45 -3.6681,-14.682 3.6681,-14.682 h -4.2763 l -3.0314,10.615 h -4.2763 l 3.0314,-10.615 h -4.2858 l -3.0219,10.615 h -4.2763 l 3.0124,-10.615 h -4.2763 l -3.0124,10.615 h -4.2763 l 3.0124,-10.615 h -4.2763 l -3.0124,10.615 h -97.119 l 3.269,-10.615 c -11.045,5.5495 -24.206,10.281 -38.059,14.682 13.853,4.4006 27.014,9.1324 38.059,14.682 l -3.269,-10.605 h 97.119 l 3.0124,10.605 h 4.2763 l -3.0124,-10.605 h 4.2763 l 3.0124,10.605 h 4.2763 l -3.0124,-10.605 h 4.2763 l 3.0219,10.605 h 4.2858 l -3.0314,-10.605 h 4.2763 l 3.0314,10.605 z"
         inkscape:connector-curvature="0" />
      <path
         id="path4445"
         d="m 429.43,564.02 -10.413,-15.898 10.413,-15.898 h -3.8471 l -7.6516,10.615 h -3.8471 l 7.6515,-10.615 H 417.88 l -7.643,10.615 h -3.8557 l 7.643,-10.615 h -3.8557 l -7.6344,10.615 h -3.8472 l 7.6344,-10.615 h -3.8471 l -7.6345,10.615 h -55.63 v -10.472 l -32.393,15.756 32.393,15.746 v -10.463 h 55.638 l 7.6345,10.615 h 3.8471 l -7.6344,-10.615 h 3.8471 l 7.6344,10.615 h 3.8472 l -7.6345,-10.615 h 3.8471 l 7.643,10.615 h 3.8557 l -7.6515,-10.615 h 3.8471 l 7.6516,10.615 h 3.8471 z"
         inkscape:connector-curvature="0" />
      <path
         id="path4447"
         d="m 374.45,387.6 h 14.488 v 10.98 H 374.45 v 12.076 l -47.307,-17.211 47.307,-17.283 z"
         inkscape:connector-curvature="0" />
      <path
         id="path4449"
         d="m 363.42,435.8 h 44.756 v 25.284 H 363.42 v 14.448 l -36.242,-27.09 36.242,-27.09 z m -9.6859,29.335 v -8.5663 h 44.476 v -16.254 h -44.476 v -8.5663 l -20.284,16.693 20.284,16.693 z"
         inkscape:connector-curvature="0" />
      <path
         id="path4451"
         d="m 400.24,267.85 h 17.919 v 19.246 l -17.919,-1.4e-4 v 6.6111 l -29.088,-16.336 29.088,-16.158 v 6.6367 z"
         inkscape:connector-curvature="0" />
      <path
         id="path4453"
         d="m 418.09,524.19 h -5.0835 l -1.2854,-19.872 h -72.539 l 3.6036,4.1129 c 5.0222,6.0956 11.229,19.99 9.8948,18.66 l -25.065,-24.99 25.065,-26.298 c 0.36519,-0.38312 -1.769,9.5604 -9.6595,18.754 l -3.6452,4.2778 h 72.345 l 1.2854,-18.775 h 5.0835 v 44.13 z"
         inkscape:connector-curvature="0" />
      <path
         id="path4455"
         d="m 559.5,312.16 -24.656,27.09 24.656,27.09 h -62.868 l -28.864,-27.09 28.864,-27.09 z"
         inkscape:connector-curvature="0" />
      <g
         id="g4463"
         transform="matrix(-0.22191,0,0,-0.23904,466.9,579.79)">
        <path
           id="path4457"
           d="M 19.691,1006.8 80.502,939.986 19.691,873.172 h 155.06 l 59.688,66.814 -59.688,66.814 z"
           inkscape:connector-curvature="0" />
        <path
           id="path4459"
           d="m 193.69,1006.8 60.811,-66.814 -60.811,-66.814 h 155.06 l 59.688,66.814 -59.688,66.814 z"
           inkscape:connector-curvature="0"
           style="fill:none;stroke:#000000" />
        <path
           id="path4461"
           d="m 367.69,1006.8 60.811,-66.814 -60.811,-66.814 h 155.06 l 59.688,66.814 -59.688,66.814 z"
           inkscape:connector-curvature="0" />
      </g>
      <path
         id="path4465"
         d="m 463.29,310.07 c -0.17713,-4.068 -9.8922,-15.527 -4.7894,-17.675 50.705,-1.8221 68.925,0.80054 69.618,2.4327 l 3.9912,9.3983 h 2.6323 l -2.1666,-9.3983 h 3.2405 l 3.9912,9.3983 h 2.6228 l -2.1572,-9.3983 h 3.2405 l 3.9912,9.3983 h 2.6418 l -2.1762,-9.3983 h 3.231 l 4.0102,9.3983 h 2.6323 c -4.524,-10.437 -3.9854,-21.055 0,-31.796 h -2.6323 l -4.0102,9.3983 h -3.231 l 2.1762,-9.3983 h -2.6418 l -3.9912,9.3983 h -3.2405 L 542.43,272.43 h -2.6228 l -3.9912,9.3983 h -3.2405 l 2.1666,-9.3983 h -2.6323 l -3.9912,9.3983 c -0.69314,1.6322 -18.913,4.2548 -69.618,2.4327 -5.1028,-2.148 4.6123,-13.607 4.7894,-17.675 -5.8864,5.722 -25.842,17.472 -35.598,21.742 9.756,4.2709 29.711,16.02 35.598,21.742 z"
         inkscape:connector-curvature="0" />
      <path
         id="path4467"
         d="m 422.18,329.87 c -1.819,-5.5288 -4.8085,-7.5432 -5.5784,-16.592 0.76989,-9.0487 3.7593,-11.054 5.5784,-16.582 -6.701,4.8779 -12.268,11.042 -21.191,13.38 l -30.504,-0.0665 c -5.1569,-2.0458 2.1737,-12.639 1.2829,-12.639 -13.155,5e-5 -16.724,12.765 -27.055,15.908 10.33,3.1426 13.9,15.908 27.055,15.908 0.89087,0 -6.4398,-10.583 -1.2829,-12.629 l 30.504,-0.076 c 8.9232,2.3383 14.49,8.5115 21.191,13.389 z"
         inkscape:connector-curvature="0" />
    </g>
  </g>
</svg>
